<?xml version="1.0" encoding="utf-8"?>
<!-- Generator: Adobe Illustrator 26.0.1, SVG Export Plug-In . SVG Version: 6.00 Build 0)  -->
<svg version="1.1" id="Слой_1" xmlns="http://www.w3.org/2000/svg" xmlns:xlink="http://www.w3.org/1999/xlink" x="0px" y="0px"
	 viewBox="0 0 59.7 24.7" style="enable-background:new 0 0 59.7 24.7;" xml:space="preserve">
<style type="text/css">
	.st0{fill:#444444;}
	.st1{fill:#565656;}
	.st2{fill:#444444;stroke:#444444;stroke-width:0.75;}
</style>
<image style="display:none;overflow:visible;" width="291" height="103" xlink:href="../../../social-react-app2/public/logo-social.png"  transform="matrix(0.24 0 0 0.24 -5.22 0)">
</image>
<path class="st0" d="M24.1,22.4c-1,0-1.9-0.1-2.8-0.4c-0.9-0.3-1.6-0.6-2.1-1l1-2.2c0.5,0.4,1.1,0.7,1.8,0.9
	c0.7,0.2,1.4,0.4,2.2,0.4c0.6,0,1-0.1,1.3-0.2c0.3-0.1,0.6-0.3,0.8-0.5c0.2-0.2,0.2-0.4,0.2-0.7c0-0.3-0.1-0.6-0.4-0.8
	c-0.3-0.2-0.6-0.4-1-0.5c-0.4-0.1-0.9-0.2-1.4-0.4c-0.5-0.1-1-0.3-1.5-0.4c-0.5-0.2-1-0.4-1.4-0.6c-0.4-0.3-0.8-0.6-1-1
	c-0.3-0.4-0.4-1-0.4-1.6c0-0.7,0.2-1.4,0.6-2c0.4-0.6,0.9-1.1,1.7-1.4c0.8-0.4,1.7-0.5,2.8-0.5c0.8,0,1.5,0.1,2.3,0.3
	c0.7,0.2,1.4,0.5,2,0.8l-0.9,2.2c-0.6-0.3-1.1-0.6-1.7-0.7c-0.6-0.2-1.1-0.2-1.7-0.2c-0.5,0-1,0.1-1.3,0.2c-0.3,0.1-0.6,0.3-0.7,0.5
	c-0.2,0.2-0.2,0.4-0.2,0.7c0,0.3,0.1,0.6,0.4,0.8c0.3,0.2,0.6,0.4,1,0.5c0.4,0.1,0.9,0.2,1.4,0.4c0.5,0.1,1,0.3,1.5,0.4
	c0.5,0.2,1,0.4,1.4,0.6c0.4,0.3,0.8,0.6,1,1c0.3,0.4,0.4,1,0.4,1.6c0,0.7-0.2,1.3-0.6,1.9c-0.4,0.6-1,1.1-1.7,1.4
	C26.2,22.2,25.2,22.4,24.1,22.4z"/>
<g>
	<path class="st1" d="M4.5,22.2L0.2,2.4h3.2l3.8,17.5H5.5l4-17.5h2.8l3.8,17.5h-1.5l3.9-17.5h2.9l-4.4,19.8h-3.3L10.4,6.8h0.9
		L7.8,22.2H4.5z"/>
</g>
<g>
	<path class="st0" d="M33.7,22.2c-0.7,0-1.4-0.2-1.9-0.5c-0.6-0.3-1-0.7-1.3-1.3c-0.3-0.5-0.5-1.1-0.5-1.8c0-0.7,0.2-1.3,0.5-1.9
		c0.3-0.5,0.8-1,1.3-1.3c0.6-0.3,1.2-0.5,1.9-0.5c0.7,0,1.3,0.2,1.9,0.5c0.6,0.3,1,0.7,1.3,1.3c0.3,0.5,0.5,1.2,0.5,1.9
		c0,0.7-0.2,1.3-0.5,1.8c-0.3,0.5-0.8,1-1.3,1.3C35.1,22,34.4,22.2,33.7,22.2z M33.7,20.5c0.3,0,0.6-0.1,0.9-0.2
		c0.3-0.2,0.5-0.4,0.6-0.7c0.2-0.3,0.2-0.6,0.2-1c0-0.4-0.1-0.7-0.2-1c-0.2-0.3-0.4-0.5-0.6-0.7c-0.3-0.2-0.6-0.2-0.9-0.2
		s-0.6,0.1-0.9,0.2c-0.3,0.2-0.5,0.4-0.6,0.7c-0.2,0.3-0.2,0.6-0.2,1c0,0.4,0.1,0.7,0.2,1c0.2,0.3,0.4,0.5,0.6,0.7
		C33.1,20.5,33.4,20.5,33.7,20.5z"/>
	<path class="st0" d="M42,22.2c-0.7,0-1.4-0.2-1.9-0.5c-0.6-0.3-1-0.7-1.3-1.3c-0.3-0.5-0.5-1.2-0.5-1.8c0-0.7,0.2-1.3,0.5-1.9
		c0.3-0.5,0.8-1,1.3-1.3c0.6-0.3,1.2-0.5,1.9-0.5c0.7,0,1.3,0.2,1.9,0.5c0.5,0.3,0.9,0.7,1.2,1.3l-1.5,0.8c-0.2-0.3-0.4-0.6-0.7-0.7
		c-0.3-0.2-0.5-0.2-0.9-0.2c-0.3,0-0.6,0.1-0.9,0.2c-0.3,0.2-0.5,0.4-0.6,0.7c-0.2,0.3-0.2,0.6-0.2,1s0.1,0.7,0.2,1
		c0.2,0.3,0.4,0.5,0.6,0.7c0.3,0.2,0.6,0.2,0.9,0.2c0.3,0,0.6-0.1,0.9-0.2c0.3-0.2,0.5-0.4,0.7-0.7l1.5,0.9c-0.3,0.6-0.6,1-1.2,1.3
		C43.3,22,42.7,22.2,42,22.2z"/>
	<path class="st0" d="M47.1,14.2c-0.4,0-0.7-0.1-0.9-0.3c-0.2-0.2-0.3-0.5-0.3-0.8c0-0.3,0.1-0.6,0.3-0.8c0.2-0.2,0.5-0.3,0.9-0.3
		c0.4,0,0.7,0.1,0.9,0.3c0.2,0.2,0.3,0.5,0.3,0.8c0,0.3-0.1,0.6-0.3,0.8S47.4,14.2,47.1,14.2z M46.1,22.1v-6.9h2v6.9H46.1z"/>
	<path class="st0" d="M51.9,22.2c-0.5,0-1-0.1-1.4-0.3c-0.4-0.2-0.7-0.4-0.9-0.8c-0.2-0.3-0.3-0.7-0.3-1.1c0-0.4,0.1-0.8,0.3-1.1
		s0.5-0.6,0.9-0.7c0.4-0.2,1-0.3,1.7-0.3h1.8v1.2h-1.6c-0.5,0-0.8,0.1-0.9,0.2c-0.2,0.2-0.3,0.3-0.3,0.6c0,0.3,0.1,0.5,0.3,0.6
		c0.2,0.2,0.5,0.2,0.8,0.2c0.3,0,0.6-0.1,0.9-0.2c0.3-0.2,0.4-0.4,0.6-0.7l0.3,0.9c-0.1,0.4-0.4,0.8-0.8,1
		C53,22.1,52.5,22.2,51.9,22.2z M54,22.1v-1.4l-0.1-0.3V18c0-0.4-0.1-0.8-0.4-1s-0.6-0.4-1.2-0.4c-0.4,0-0.7,0.1-1.1,0.2
		c-0.3,0.1-0.6,0.3-0.9,0.5l-0.7-1.4c0.4-0.3,0.8-0.5,1.3-0.6c0.5-0.1,1-0.2,1.6-0.2c1,0,1.8,0.2,2.4,0.7c0.6,0.5,0.9,1.3,0.9,2.3v4
		H54z"/>
	<path class="st0" d="M57.6,22.1v-9.6h2v9.6H57.6z"/>
</g>
<g>
	<path class="st1" d="M24,9.5c-0.5,0-1-0.1-1.4-0.3c-0.4-0.2-0.7-0.5-1-0.9c-0.2-0.4-0.4-0.8-0.4-1.3c0-0.5,0.1-1,0.4-1.3
		c0.2-0.4,0.6-0.7,1-0.9s0.9-0.3,1.4-0.3c0.5,0,1,0.1,1.4,0.3c0.4,0.2,0.7,0.5,1,0.9c0.2,0.4,0.3,0.8,0.3,1.3c0,0.5-0.1,0.9-0.3,1.3
		c-0.2,0.4-0.5,0.7-1,0.9C25,9.4,24.5,9.5,24,9.5z M24,8.3c0.2,0,0.4-0.1,0.6-0.2C24.8,8,25,7.8,25.1,7.6c0.1-0.2,0.2-0.5,0.2-0.7
		c0-0.3-0.1-0.5-0.2-0.7c-0.1-0.2-0.3-0.4-0.4-0.5c-0.2-0.1-0.4-0.2-0.6-0.2c-0.2,0-0.4,0.1-0.6,0.2c-0.2,0.1-0.3,0.3-0.5,0.5
		c-0.1,0.2-0.2,0.5-0.2,0.7c0,0.3,0.1,0.5,0.2,0.7C23,7.8,23.2,8,23.3,8.1C23.5,8.2,23.7,8.3,24,8.3z"/>
	<path class="st1" d="M27.6,9.4v-5H29v1.4l-0.2-0.4c0.1-0.4,0.4-0.6,0.7-0.8c0.3-0.2,0.7-0.3,1.2-0.3v1.3c-0.1,0-0.1,0-0.2,0
		c0,0-0.1,0-0.2,0c-0.4,0-0.7,0.1-0.9,0.3C29.2,6.2,29,6.5,29,7v2.4H27.6z"/>
	<path class="st1" d="M31.5,9.4v-7h1.4v7H31.5z M32.7,8.4l0-1.8L35,4.4h1.7l-2.2,2.3l-0.7,0.6L32.7,8.4z M35.2,9.4l-1.7-2.1l0.9-1.1
		l2.5,3.3H35.2z"/>
</g>
<path class="st2" d="M59.6,11.6c-9.4,0-18.7,0-28.1,0"/>
</svg>
